<?xml version="1.0" encoding="utf-8"?>
<!-- Generator: Adobe Illustrator 27.0.0, SVG Export Plug-In . SVG Version: 6.00 Build 0)  -->
<svg version="1.1" id="Warstwa_1" xmlns="http://www.w3.org/2000/svg" xmlns:xlink="http://www.w3.org/1999/xlink" x="0px" y="0px"
	 viewBox="0 0 842 595" style="enable-background:new 0 0 842 595;" xml:space="preserve">
<style type="text/css">
	.st0{fill-rule:evenodd;clip-rule:evenodd;fill:#0077BE;}
</style>
<g>
	<path class="st0" d="M651.64,342.34h39.96l17.23-64.31c3.29-12.29,9.73-18.68,18.01-18.68c9.22,0,10,5.91,6.64,18.44l-17.29,64.55
		h39.96l21.98-82.05c7.29-27.19-1.21-41.37-24.14-41.37c-12.53,0-23.9,4.49-33.64,13.48l3.11-11.59H684.2L651.64,342.34z"/>
	<path class="st0" d="M574.52,342.34h39.96L630,284.41c3.99-14.9,13.95-22.93,28.13-22.93h4.73l11.21-41.85
		c-12.18,0.47-21.94,4.26-30.39,13.71l3.36-12.53h-39.96L574.52,342.34z"/>
	<path class="st0" d="M525.66,259.11c11.59,0,18.02,10.4,14.79,22.46c-3.23,12.06-15.18,22.23-26.76,22.23
		c-11.35,0-18.27-9.46-14.85-22.23C502.26,268.81,514.31,259.11,525.66,259.11L525.66,259.11z M536.49,218.68
		c-34.52,0-69.55,28.37-78.8,62.89c-9.25,34.52,10.33,62.93,45.08,62.93c34.99,0,69.62-28.65,78.81-62.93
		C590.78,247.29,571.01,218.68,536.49,218.68z"/>
	<path class="st0" d="M431.43,341.39l10.52-39.25c-6.94,1.18-12.57,1.89-17.29,1.89c-15.84,0-23-9.46-19.45-22.7
		c3.67-13.71,14.94-22.23,31.25-22.23c4.97,0,10.32,1.18,16.26,2.84l10.65-39.72c-5.88-1.89-12.01-2.84-18.63-2.84
		c-38.07,0-70.49,24.83-80.18,61c-10.26,38.3,7.95,63.88,43.41,63.88C415.77,344.27,423.35,343.33,431.43,341.39z"/>
	<path class="st0" d="M175.34,342.34h39.96l17.23-64.31c3.29-12.29,9.73-18.68,18.01-18.68c9.22,0,10,5.91,6.64,18.44l-17.29,64.55
		h39.96l21.98-82.05c7.29-27.19-1.21-41.37-24.14-41.37c-12.53,0-23.9,4.49-33.64,13.48l3.11-11.59H207.9L175.34,342.34z"/>
	<path class="st0" d="M191.32,220.81h-39.96l-17.23,64.31c-3.36,12.53-9.26,18.68-18.25,18.68c-8.98,0-9.7-6.15-6.41-18.44
		l17.3-64.55H86.81l-22.05,82.28c-7.29,27.19,1.26,41.18,24.19,41.18c12.53,0,23.67-4.53,33.65-13.52l-3.11,11.59h39.25
		L191.32,220.81z"/>
	<polygon class="st0" points="296.47,342.86 336.43,342.86 362.93,243.94 329.03,221.33 	"/>
	<polygon class="st0" points="330.8,215.48 364.87,238.37 416.48,192.58 	"/>
	<g>
		<path d="M61.33,401.8l19.71-34.77h5.48l5.74,34.77h-4.51l-1.68-10.01H72.01l-5.57,10.01H61.33z M74,388.21h11.5l-1.35-8.73
			c-0.52-3.46-0.85-6.35-0.97-8.66c-0.79,1.99-1.94,4.36-3.46,7.09L74,388.21z"/>
		<path d="M127.43,401.8l7.28-34.77h14.58c2.88,0,5.06,0.24,6.55,0.72c1.49,0.48,2.65,1.39,3.5,2.71c0.85,1.33,1.27,3,1.27,5.03
			c0,2.83-0.92,5.18-2.77,7.04s-4.84,3.08-8.96,3.63c1.26,0.93,2.22,1.85,2.87,2.75c1.45,2.04,2.62,4.15,3.51,6.33l2.66,6.55h-5.19
			l-2.49-6.47c-0.9-2.34-1.93-4.36-3.08-6.07c-0.79-1.19-1.6-1.96-2.42-2.34c-0.82-0.37-2.16-0.56-4.01-0.56h-5.41l-3.23,15.44
			H127.43z M136.09,382.59h6.43c2.97,0,4.91-0.04,5.81-0.12c1.75-0.17,3.19-0.57,4.32-1.19c1.12-0.62,1.99-1.45,2.61-2.49
			c0.62-1.04,0.92-2.17,0.92-3.37c0-1.01-0.23-1.89-0.69-2.64c-0.46-0.75-1.06-1.26-1.8-1.53c-0.74-0.27-2.01-0.4-3.79-0.4h-11.34
			L136.09,382.59z"/>
		<path d="M219.97,389.57l4.6,0.64c-1.45,4.02-3.57,7.05-6.36,9.11c-2.78,2.06-5.91,3.08-9.37,3.08c-4.22,0-7.57-1.29-10.04-3.87
			c-2.48-2.58-3.71-6.27-3.71-11.08c0-6.26,1.88-11.44,5.64-15.53c3.35-3.65,7.52-5.48,12.5-5.48c3.68,0,6.67,0.99,8.95,2.96
			c2.28,1.98,3.61,4.63,3.97,7.97l-4.34,0.4c-0.46-2.51-1.4-4.39-2.83-5.63c-1.43-1.24-3.28-1.86-5.54-1.86
			c-4.25,0-7.69,1.89-10.32,5.67c-2.28,3.26-3.42,7.12-3.42,11.6c0,3.57,0.88,6.3,2.63,8.18c1.75,1.88,4.04,2.82,6.85,2.82
			c2.4,0,4.58-0.78,6.52-2.35C217.67,394.64,219.08,392.43,219.97,389.57z"/>
		<path d="M258.25,401.8l7.28-34.77h4.62l-3.01,14.44h18.02l3.01-14.44h4.65l-7.26,34.77h-4.65l3.42-16.39h-18l-3.44,16.39H258.25z"
			/>
		<path d="M324.51,401.8l7.28-34.77h4.62l-7.26,34.77H324.51z"/>
		<path d="M376.71,401.8l6.43-30.81h-11.41l0.83-3.96h27.37L399.1,371h-11.31l-6.43,30.81H376.71z"/>
		<path d="M427.99,401.8l7.28-34.77h25.09l-0.83,3.96h-20.44l-2.28,10.81h19.92l-0.83,3.96h-19.92l-2.51,12.09h21.89l-0.83,3.94
			H427.99z"/>
		<path d="M517.94,389.57l4.6,0.64c-1.46,4.02-3.57,7.05-6.36,9.11c-2.78,2.06-5.91,3.08-9.37,3.08c-4.22,0-7.57-1.29-10.04-3.87
			c-2.48-2.58-3.71-6.27-3.71-11.08c0-6.26,1.88-11.44,5.64-15.53c3.35-3.65,7.52-5.48,12.5-5.48c3.68,0,6.67,0.99,8.95,2.96
			c2.28,1.98,3.61,4.63,3.97,7.97l-4.34,0.4c-0.46-2.51-1.4-4.39-2.84-5.63c-1.43-1.24-3.28-1.86-5.54-1.86
			c-4.25,0-7.69,1.89-10.32,5.67c-2.28,3.26-3.42,7.12-3.42,11.6c0,3.57,0.88,6.3,2.63,8.18s4.04,2.82,6.85,2.82
			c2.4,0,4.58-0.78,6.52-2.35C515.64,394.64,517.06,392.43,517.94,389.57z"/>
		<path d="M565.21,401.8l6.43-30.81h-11.41l0.83-3.96h27.37L587.6,371h-11.31l-6.43,30.81H565.21z"/>
		<path d="M623.93,367.04h4.65l-4.46,21.37c-0.36,1.77-0.55,3.08-0.55,3.94c0,1.87,0.74,3.37,2.21,4.51s3.32,1.71,5.55,1.71
			c1.77,0,3.42-0.41,4.95-1.22c1.52-0.81,2.73-2.01,3.62-3.59s1.68-4.1,2.4-7.57l4.01-19.14h4.65l-4.25,20.4
			c-0.73,3.48-1.68,6.23-2.87,8.27c-1.19,2.03-2.83,3.66-4.93,4.89c-2.1,1.22-4.55,1.84-7.33,1.84c-2.62,0-4.9-0.43-6.82-1.3
			c-1.92-0.87-3.36-2.07-4.32-3.6c-0.96-1.53-1.44-3.27-1.44-5.22c0-1.22,0.32-3.31,0.97-6.28L623.93,367.04z"/>
		<path d="M682.11,401.8l7.28-34.77h14.59c2.88,0,5.06,0.24,6.55,0.72c1.49,0.48,2.65,1.39,3.5,2.71c0.85,1.33,1.27,3,1.27,5.03
			c0,2.83-0.92,5.18-2.77,7.04s-4.84,3.08-8.96,3.63c1.26,0.93,2.22,1.85,2.87,2.75c1.45,2.04,2.62,4.15,3.51,6.33l2.66,6.55h-5.19
			l-2.49-6.47c-0.9-2.34-1.93-4.36-3.08-6.07c-0.79-1.19-1.6-1.96-2.42-2.34c-0.82-0.37-2.16-0.56-4.01-0.56h-5.41l-3.23,15.44
			H682.11z M690.76,382.59h6.43c2.97,0,4.91-0.04,5.81-0.12c1.75-0.17,3.19-0.57,4.31-1.19c1.12-0.62,1.99-1.45,2.61-2.49
			c0.61-1.04,0.92-2.17,0.92-3.37c0-1.01-0.23-1.89-0.69-2.64c-0.46-0.75-1.06-1.26-1.8-1.53s-2.01-0.4-3.79-0.4h-11.33
			L690.76,382.59z"/>
		<path d="M747.54,401.8l7.28-34.77h25.09l-0.83,3.96h-20.44l-2.28,10.81h19.92l-0.83,3.96h-19.92l-2.52,12.09h21.89l-0.83,3.94
			H747.54z"/>
	</g>
</g>
</svg>
